<svg id="Capa_1" enable-background="new 0 0 512 512" height="512" viewBox="0 0 512 512" width="512" xmlns="http://www.w3.org/2000/svg" xmlns:xlink="http://www.w3.org/1999/xlink"><linearGradient id="SVGID_1_" gradientUnits="userSpaceOnUse" x1="256" x2="256" y1="421" y2="91"><stop offset="0" stop-color="#fd3a84"/><stop offset="1" stop-color="#ffa68d"/></linearGradient><linearGradient id="SVGID_2_" gradientUnits="userSpaceOnUse" x1="256" x2="256" y1="361" y2="166"><stop offset="0" stop-color="#ffc2cc"/><stop offset="1" stop-color="#fff2f4"/></linearGradient><g><g><g><path d="m512 136c0-24.9-20.099-45-45-45h-422c-24.901 0-45 20.1-45 45v30l127.5 30-127.5 30v150c0 24.898 20.099 45 45 45h422c24.901 0 45-20.102 45-45v-150l-127.5-30 127.5-30z" fill="url(#SVGID_1_)"/></g></g><g><g><path d="m0 166v60h512v-60zm437 105h-120c-8.291 0-15 6.709-15 15v60c0 8.291 6.709 15 15 15h120c8.291 0 15-6.709 15-15v-60c0-8.291-6.709-15-15-15zm-242 0h-120c-8.291 0-15 6.709-15 15s6.709 15 15 15h120c8.291 0 15-6.709 15-15s-6.709-15-15-15zm-60 60h-60c-8.291 0-15 6.709-15 15s6.709 15 15 15h60c8.291 0 15-6.709 15-15s-6.709-15-15-15z" fill="url(#SVGID_2_)"/></g></g></g></svg>